<svg id="Layer_2" data-name="Layer 2" xmlns="http://www.w3.org/2000/svg" width="50" height="52.771" viewBox="0 0 50 52.771">
  <g id="Layer_33" data-name="Layer 33" transform="translate(0 0)">
    <path id="Path_44" data-name="Path 44" d="M49.94,11.745A7.675,7.675,0,0,0,39.517,5.118,7.356,7.356,0,0,1,33.589,4.9a22.835,22.835,0,0,0-5.036-1.79A3.511,3.511,0,0,1,26.3,1.5a3.084,3.084,0,0,0-5.271-.068A3.532,3.532,0,0,1,18.767,3,22.87,22.87,0,0,0,9.494,7.278a3.743,3.743,0,0,1-3.008.737,4.431,4.431,0,0,0-4.793,6.43A3.71,3.71,0,0,1,1.927,17.5a22.989,22.989,0,0,0-.572,14.21,3.608,3.608,0,0,1-.508,3.114,4.642,4.642,0,0,0,4.626,7.291,3.667,3.667,0,0,1,3.062.81,22.981,22.981,0,0,0,7.456,4.267A3.71,3.71,0,0,1,18.2,49.175a5.941,5.941,0,0,0,10.915-.03,3.732,3.732,0,0,1,2.128-2.071,22.954,22.954,0,0,0,6.089-3.321,3.637,3.637,0,0,1,2.919-.645,6.049,6.049,0,0,0,1.815.076,5.941,5.941,0,0,0,4.242-9.273,3.632,3.632,0,0,1-.567-2.922,23.107,23.107,0,0,0,.324-9.478,3.627,3.627,0,0,1,1.185-3.4,7.658,7.658,0,0,0,2.692-6.365ZM45.312,25.482a22.042,22.042,0,0,1-.149,2.546A3.683,3.683,0,0,1,41.5,31.312h-.319a5.941,5.941,0,0,0-5.187,8.431,3.594,3.594,0,0,1-1.456,4.58c-.37.219-.751.429-1.137.626a3.632,3.632,0,0,1-4.707-1.337,5.941,5.941,0,0,0-10.143.122,3.64,3.64,0,0,1-4.747,1.35,21.7,21.7,0,0,1-3.511-2.16A3.654,3.654,0,0,1,9.034,38.9,4.642,4.642,0,0,0,5.651,33c-.162-.038-.324-.065-.483-.086a3.546,3.546,0,0,1-3.073-2.7,21.93,21.93,0,0,1,.37-10.861,3.64,3.64,0,0,1,3.362-2.563,4.575,4.575,0,0,0,.5-.054,4.434,4.434,0,0,0,3.559-5.549,3.643,3.643,0,0,1,1.572-3.97,21.733,21.733,0,0,1,6.57-2.906,3.543,3.543,0,0,1,3.419.918,3.076,3.076,0,0,0,4.35.059,3.608,3.608,0,0,1,3.47-.88,21.676,21.676,0,0,1,3.781,1.442A3.629,3.629,0,0,1,34.9,10.141a7.672,7.672,0,0,0,6.775,9.765h.078a3.656,3.656,0,0,1,3.419,3.24,21.8,21.8,0,0,1,.135,2.336Z" transform="translate(0.042 0.017)" fill="#fff"/>
  </g>
</svg>
