<svg id="Layer_2" data-name="Layer 2" xmlns="http://www.w3.org/2000/svg" width="50" height="75.87" viewBox="0 0 50 75.87">
  <g id="Layer_33" data-name="Layer 33" transform="translate(0 0)">
    <g id="Group_295" data-name="Group 295">
      <g id="Group_294" data-name="Group 294" transform="translate(0.966)">
        <path id="Path_115" data-name="Path 115" d="M49.784,28.418c.032-.2.07-.368.114-.541s.095-.344.146-.514c.111-.336.235-.666.379-.988a.4.4,0,1,1,.733.322c-.13.3-.244.6-.344.912-.046.154-.092.309-.13.466s-.073.319-.092.449v.011a.41.41,0,0,1-.812-.116Z" transform="translate(-37.264 -19.062)" fill="#fff"/>
        <path id="Path_116" data-name="Path 116" d="M55.84,15.614a11.018,11.018,0,0,1,1.372-1.594.39.39,0,1,1,.541.56,10.374,10.374,0,0,0-1.267,1.489.4.4,0,0,1-.647-.452Z" transform="translate(-41.645 -10.139)" fill="#fff"/>
        <path id="Path_117" data-name="Path 117" d="M66.7,6.661a13.457,13.457,0,0,1,1.832-1.015.38.38,0,1,1,.317.69,12.7,12.7,0,0,0-1.719.963.385.385,0,1,1-.43-.639Z" transform="translate(-49.486 -4.093)" fill="#fff"/>
        <path id="Path_118" data-name="Path 118" d="M80.421,1.722a18.54,18.54,0,0,1,2.019-.468.375.375,0,0,1,.133.739,17.373,17.373,0,0,0-1.935.468.374.374,0,1,1-.219-.715Z" transform="translate(-59.421 -0.911)" fill="#fff"/>
        <path id="Path_119" data-name="Path 119" d="M95.244.077,96.278.014a3,3,0,0,1,.563,0,2.617,2.617,0,0,1,.576.13.358.358,0,0,1-.235.677,1.794,1.794,0,0,0-.414-.089,2.344,2.344,0,0,0-.455,0L95.306.813H95.29a.369.369,0,1,1-.049-.736Z" transform="translate(-70.174 -0.001)" fill="#fff"/>
        <path id="Path_120" data-name="Path 120" d="M108.227,5.813a2.593,2.593,0,0,1,.116.576,2.668,2.668,0,0,1,0,.3,1.328,1.328,0,0,1,0,.146v.124l-.084,1.015a.349.349,0,1,1-.7-.057l.078-1.012V6.452a1.967,1.967,0,0,0-.087-.417h0a.355.355,0,1,1,.671-.222Z" transform="translate(-79.387 -4.043)" fill="#fff"/>
        <path id="Path_121" data-name="Path 121" d="M112.136,18.62l2.005.479a.338.338,0,0,1-.154.658h-.027L112,19.3h-.024a.343.343,0,1,1,.157-.668Z" transform="translate(-82.441 -13.581)" fill="#fff"/>
        <path id="Path_122" data-name="Path 122" d="M126.718,22.764a15.665,15.665,0,0,1,1.895.885.33.33,0,0,1,.127.447.325.325,0,0,1-.444.124,14.96,14.96,0,0,0-1.827-.836.333.333,0,0,1,.241-.62Z" transform="translate(-93.058 -16.591)" fill="#fff"/>
        <path id="Path_123" data-name="Path 123" d="M139.9,30.259a9.448,9.448,0,0,1,1.467,1.513.317.317,0,1,1-.5.384,8.7,8.7,0,0,0-1.372-1.4.322.322,0,0,1,.406-.5Z" transform="translate(-102.622 -22.029)" fill="#fff"/>
        <path id="Path_124" data-name="Path 124" d="M148.977,42.221a8.729,8.729,0,0,1,.56,2.03.307.307,0,0,1-.606.092,8.062,8.062,0,0,0-.528-1.881.312.312,0,1,1,.574-.244Z" transform="translate(-109.181 -30.654)" fill="#fff"/>
        <path id="Path_125" data-name="Path 125" d="M150.689,57.149a13.8,13.8,0,0,1-.271,2.06.3.3,0,0,1-.349.233.3.3,0,0,1-.233-.349,13.159,13.159,0,0,0,.249-1.97.3.3,0,0,1,.6.027Z" transform="translate(-110.241 -41.452)" fill="#fff"/>
        <path id="Path_126" data-name="Path 126" d="M146.542,71.77c-.216.655-.463,1.294-.736,1.924a.271.271,0,0,1-.373.149.287.287,0,0,1-.152-.373,18.885,18.885,0,0,0,.706-1.895.292.292,0,1,1,.541.181Z" transform="translate(-106.906 -52.014)" fill="#fff"/>
        <path id="Path_127" data-name="Path 127" d="M139.967,85.857l-1,1.792a.275.275,0,0,1-.479-.271v-.016l.985-1.751h0a.28.28,0,1,1,.49.271Z" transform="translate(-101.939 -62.335)" fill="#fff"/>
        <path id="Path_128" data-name="Path 128" d="M131.837,98.862l-1.191,1.667a.271.271,0,0,1-.433-.309h0l1.166-1.648h0a.271.271,0,0,1,.441.311Z" transform="translate(-95.914 -71.822)" fill="#fff"/>
        <path id="Path_129" data-name="Path 129" d="M127.439,111.051a1.045,1.045,0,0,0,.411.679,1.454,1.454,0,0,0,.4.187l.468.171h0a.255.255,0,1,1-.173.479l-.487-.176a1.822,1.822,0,0,1-.517-.246,1.562,1.562,0,0,1-.625-1.012h0a.271.271,0,1,1,.512-.081Z" transform="translate(-93.508 -80.771)" fill="#fff"/>
        <path id="Path_130" data-name="Path 130" d="M139.9,118.057a14.514,14.514,0,0,1,1.895.842.245.245,0,1,1-.233.43,13.407,13.407,0,0,0-1.827-.812.249.249,0,0,1,.17-.468Z" transform="translate(-102.76 -86.089)" fill="#fff"/>
        <path id="Path_131" data-name="Path 131" d="M153.016,125.437a8.932,8.932,0,0,1,1.407,1.537.23.23,0,0,1-.051.325.233.233,0,0,1-.325-.051,8.516,8.516,0,0,0-1.353-1.448.238.238,0,1,1,.309-.363Z" transform="translate(-112.268 -91.447)" fill="#fff"/>
        <path id="Path_132" data-name="Path 132" d="M161.923,137.476a12.545,12.545,0,0,1,.677,1.954.223.223,0,0,1-.43.114,12.023,12.023,0,0,0-.663-1.895.23.23,0,1,1,.417-.189Z" transform="translate(-118.733 -100.143)" fill="#fff"/>
        <path id="Path_133" data-name="Path 133" d="M165.91,152.194l.106,1.023a2.8,2.8,0,0,0,.076.463,2.264,2.264,0,0,0,.165.433.211.211,0,0,1-.376.192,2.631,2.631,0,0,1-.2-.514,2.952,2.952,0,0,1-.092-.541l-.108-1h0a.219.219,0,0,1,.433-.049Z" transform="translate(-121.654 -110.883)" fill="#fff"/>
        <path id="Path_134" data-name="Path 134" d="M172.739,164.277a5.568,5.568,0,0,1,1.426,1.543.2.2,0,0,1-.341.217,5.113,5.113,0,0,0-1.326-1.421.211.211,0,0,1-.049-.29A.208.208,0,0,1,172.739,164.277Z" transform="translate(-126.711 -119.789)" fill="#fff"/>
        <path id="Path_135" data-name="Path 135" d="M181.114,176.635a12.524,12.524,0,0,1,.487,2.005.191.191,0,1,1-.376.062,12.116,12.116,0,0,0-.484-1.941.2.2,0,1,1,.373-.13Z" transform="translate(-132.776 -128.731)" fill="#fff"/>
        <path id="Path_136" data-name="Path 136" d="M183.615,191.457a19.938,19.938,0,0,1-.035,2.051.181.181,0,0,1-.36-.024,19.99,19.99,0,0,0,.024-2.014.187.187,0,1,1,.371-.014Z" transform="translate(-134.593 -139.494)" fill="#fff"/>
        <path id="Path_137" data-name="Path 137" d="M181.691,206.537l-.411,2.008a.171.171,0,0,1-.333-.068v-.014l.392-1.981v-.014a.179.179,0,0,1,.208-.138.176.176,0,0,1,.138.206Z" transform="translate(-132.935 -150.487)" fill="#fff"/>
        <path id="Path_138" data-name="Path 138" d="M177.249,221.208l-.731,1.911a.16.16,0,1,1-.3-.114h0l.715-1.895h0a.165.165,0,1,1,.309.116Z" transform="translate(-129.478 -161.185)" fill="#fff"/>
        <path id="Path_139" data-name="Path 139" d="M170.553,235.091l-1.034,1.765a.149.149,0,0,1-.206.054.146.146,0,0,1-.051-.2h0l1.012-1.748h0a.152.152,0,0,1,.211-.057.154.154,0,0,1,.054.211Z" transform="translate(-124.397 -171.311)" fill="#fff"/>
        <path id="Path_140" data-name="Path 140" d="M161.706,247.731q-.625.812-1.323,1.559a.141.141,0,0,1-.206-.189q.685-.742,1.3-1.548a.146.146,0,0,1,.2-.024.143.143,0,0,1,.024.2Z" transform="translate(-117.767 -180.514)" fill="#fff"/>
        <path id="Path_141" data-name="Path 141" d="M150.73,258.775q-.763.682-1.589,1.288a.13.13,0,1,1-.154-.206q.812-.6,1.564-1.28a.133.133,0,1,1,.179.2Z" transform="translate(-109.576 -188.57)" fill="#fff"/>
        <path id="Path_142" data-name="Path 142" d="M138.127,267.724c-.585.349-1.188.671-1.8.964a.117.117,0,0,1-.1-.211q.915-.438,1.778-.963a.125.125,0,0,1,.171.043.122.122,0,0,1-.043.168Z" transform="translate(-100.267 -195.099)" fill="#fff"/>
        <path id="Path_143" data-name="Path 143" d="M124.188,274.243l-1.946.617a.107.107,0,0,1-.068-.2h0l1.927-.622h0a.114.114,0,0,1,.143.073.111.111,0,0,1-.073.141Z" transform="translate(-90.016 -199.865)" fill="#fff"/>
        <path id="Path_144" data-name="Path 144" d="M109.506,278.207l-2.022.284a.1.1,0,1,1-.027-.192h0l2-.292h0a.1.1,0,0,1,.03.2Z" transform="translate(-79.275 -202.765)" fill="#fff"/>
        <path id="Path_145" data-name="Path 145" d="M94.527,279.823H92.487a.087.087,0,0,1,0-.173h2.041a.092.092,0,1,1,0,.184Z" transform="translate(-68.353 -203.964)" fill="#fff"/>
        <path id="Path_146" data-name="Path 146" d="M79.577,278.645l-2.024-.254a.076.076,0,0,1,.019-.152h0l2.014.244h0a.082.082,0,0,1-.019.162Z" transform="translate(-57.476 -202.935)" fill="#fff"/>
        <path id="Path_147" data-name="Path 147" d="M64.845,275.89l-1.981-.455a.068.068,0,0,1-.049-.081.065.065,0,0,1,.078-.049h0l1.981.457h0a.071.071,0,1,1-.03.138Z" transform="translate(-46.774 -200.794)" fill="#fff"/>
        <path id="Path_148" data-name="Path 148" d="M50.133,273.342c-.679-.019-1.353-.065-2.035-.152a.057.057,0,0,1-.049-.062.06.06,0,0,1,.062-.049,20.228,20.228,0,0,0,2.024.143.06.06,0,1,1,0,.119Z" transform="translate(-36.005 -199.172)" fill="#fff"/>
        <path id="Path_149" data-name="Path 149" d="M35.535,270.1a13.078,13.078,0,0,1-1.932-.652.044.044,0,1,1,.035-.081A12.985,12.985,0,0,0,35.56,270a.054.054,0,0,1,.038.062.051.051,0,0,1-.062.035Z" transform="translate(-25.448 -196.461)" fill="#fff"/>
        <path id="Path_150" data-name="Path 150" d="M22.8,262.414a9.641,9.641,0,0,1-1.567-1.3.035.035,0,0,1,0-.049.03.03,0,0,1,.046,0,9.619,9.619,0,0,0,1.562,1.288.041.041,0,0,1,0,.054.038.038,0,0,1-.054,0Z" transform="translate(-16.44 -190.398)" fill="#fff"/>
        <path id="Path_151" data-name="Path 151" d="M14.249,250.279a10.052,10.052,0,0,1-.885-1.835.021.021,0,0,1,.03-.03,10.109,10.109,0,0,0,.89,1.819.028.028,0,1,1-.038.041Z" transform="translate(-10.704 -181.178)" fill="#fff"/>
        <path id="Path_152" data-name="Path 152" d="M10.883,235.778a13.72,13.72,0,0,1-.2-2.024.014.014,0,1,1,.027,0,13.663,13.663,0,0,0,.214,2.019s0,.019-.016.022a.022.022,0,0,1-.022-.016Z" transform="translate(-8.75 -170.48)" fill="#fff"/>
        <path id="Path_153" data-name="Path 153" d="M10.93,225.8l.019-.179h0l-.019.179Z" transform="translate(-8.933 -164.557)" fill="#fff"/>
        <path id="Path_154" data-name="Path 154" d="M7.231,219.363l-1.713-1.085-1.968.479L6.108,214.7Z" transform="translate(-3.55 -156.593)" fill="#fff"/>
      </g>
      <path id="Path_155" data-name="Path 155" d="M44.791,66.708l-.271-5.413-3.686,3.984,2.192-.119a15.384,15.384,0,0,1-.812,1.4,15.156,15.156,0,0,1-1.445,1.87,13.532,13.532,0,0,1-3.721,2.855,15.946,15.946,0,0,1-4.43,1.524,23.024,23.024,0,0,1-4.682.4,36.7,36.7,0,0,1-7.727-1A10.747,10.747,0,0,0,18.6,59.787q.36-.912.72-1.835,1.973-5.075,3.757-10.225c.024-.065.046-.135.07-.2h.027l.958-.271c.325-.081.652-.141.98-.214.162-.032.325-.07.49-.1l.5-.062c.333-.038.663-.089,1-.119l1-.041c.168,0,.336-.022.5-.016l.5.019h.254L28.2,48.58l5.264-1.318L28.836,44.39l.541,2.165-.29-.022-.506-.035H27.061c-.338.016-.677.057-1.012.084l-.509.046-.5.087c-.333.062-.668.111-1,.184l-.777.2c1.115-3.232,2.165-6.5,3.072-9.789.5-1.746.92-3.518,1.329-5.286l.522-2.671.271-1.995,2.057.961L28.585,23.25,26.3,28.189l2.051-.785-.311,1.941L27.453,32C27,33.751,26.541,35.5,26,37.229c-1.042,3.407-2.214,6.766-3.467,10.111l-.436.154a18.668,18.668,0,0,0-6.828,4.4c-.179.179-.352.363-.525.541q.571-2.606.89-5.253c.176-1.226.235-2.46.336-3.692l.049-1.851c0-.309.019-.617.016-.926L16,39.784c-.024-.617-.03-1.231-.065-1.849l-.168-1.84c-.03-.306-.049-.614-.089-.92l-.143-.9L15.372,33.2l2.33.46-3.286-4.731-1.1,5.659,1.895-1.329.124,1.037.111.912c.03.306.035.612.057.917l.1,1.835v2.752c0,.306-.035.612-.051.915l-.114,1.832c-.143,1.212-.244,2.436-.463,3.635a54.015,54.015,0,0,1-1.526,6.831,29.254,29.254,0,0,0-1.784,2.485c-.309-.027-.62-.043-.936-.043a10.747,10.747,0,0,0,0,21.495c.208,0,.417,0,.622-.019.211.271.417.541.614.812a19.042,19.042,0,0,1,1.353,2.141,17.467,17.467,0,0,1,1.053,2.3,16.669,16.669,0,0,1,1,4.279l-1.784-.812,1.756,4.517,2.008-4.412L15.48,87.4a16.837,16.837,0,0,0-.88-4.382,17.457,17.457,0,0,0-1-2.365,19.153,19.153,0,0,0-1.3-2.217c-.143-.214-.292-.425-.441-.633a10.742,10.742,0,0,0,7.881-4.807,37.961,37.961,0,0,0,8.2.853,23.924,23.924,0,0,0,4.785-.541,16.439,16.439,0,0,0,4.5-1.694,13.8,13.8,0,0,0,3.719-3.023,15.169,15.169,0,0,0,2.206-3.413ZM15.732,52.342a20.193,20.193,0,0,1,3-2.6,16.09,16.09,0,0,1,3.5-1.895l.13-.051Q20.5,52.729,18.462,57.6q-.3.728-.614,1.453a10.7,10.7,0,0,0-4.238-2.3c.051-.165.1-.327.152-.493.165-.6.338-1.194.493-1.792.051-.189.1-.382.146-.571C14.822,53.362,15.263,52.842,15.732,52.342Zm-3.042,4c-.022.062-.046.127-.068.192h-.043C12.616,56.472,12.652,56.4,12.69,56.342Z" transform="translate(0.02 -16.958)" fill="#fff"/>
      <circle id="Ellipse_15" data-name="Ellipse 15" cx="1.042" cy="1.042" r="1.042" transform="translate(12.91 8.238)" fill="#fff"/>
    </g>
  </g>
</svg>
